<?xml version="1.0" encoding="iso-8859-1"?>
<!-- Generator: Adobe Illustrator 19.0.0, SVG Export Plug-In . SVG Version: 6.00 Build 0)  -->
<svg version="1.1" id="Capa_1" xmlns="http://www.w3.org/2000/svg" xmlns:xlink="http://www.w3.org/1999/xlink" x="0px" y="0px"
	 viewBox="0 0 512 512" style="enable-background:new 0 0 512 512;" xml:space="preserve">
<g>
	<g>
		<path d="M497,208.285h-15.616c-4.312-10.76-10.158-18.468-15.463-23.773c-13.429-13.431-28.593-17.138-32.92-17.953
			c-13.158-2.481-34.251-3.131-55.481-2.976c-0.063-0.001-0.124-0.01-0.187-0.01c-0.001,0-0.002,0-0.003,0l-238.324,0.048
			c-0.031,0-0.06,0.004-0.09,0.005c-22.688-0.281-45.843,0.279-59.917,2.933c-4.327,0.815-19.491,4.522-32.92,17.953
			c-5.305,5.306-11.152,13.013-15.463,23.773H15c-8.284,0-15,6.716-15,15s6.716,15,15,15h9.366c-0.097,1.931-0.15,3.913-0.15,5.952
			c0,64.701,43.484,99.008,83.887,103.503c4.212,0.469,8.424,0.7,12.62,0.7c27.416-0.001,54.09-9.878,74.692-27.969
			c16.256-14.273,35.162-39.473,42.698-82.187h35.774c7.536,42.713,26.442,67.914,42.698,82.187
			c20.604,18.092,47.274,27.969,74.692,27.969c4.194-0.001,8.41-0.231,12.62-0.7c40.402-4.495,83.887-38.802,83.887-103.503
			c0-2.039-0.053-4.021-0.15-5.952H497c8.284,0,15-6.716,15-15S505.284,208.285,497,208.285z M270.74,208.285h-29.48
			c0.069-1.759,0.128-3.533,0.162-5.339c0.06-3.191-0.314-6.325-1.08-9.345l31.319-0.006c-0.767,3.022-1.143,6.158-1.082,9.352
			C270.612,204.752,270.671,206.526,270.74,208.285z"/>
	</g>
</g>
<g>
</g>
<g>
</g>
<g>
</g>
<g>
</g>
<g>
</g>
<g>
</g>
<g>
</g>
<g>
</g>
<g>
</g>
<g>
</g>
<g>
</g>
<g>
</g>
<g>
</g>
<g>
</g>
<g>
</g>
</svg>
