<svg id="Capa_1" enable-background="new 0 0 512 512" height="512" viewBox="0 0 512 512" width="512" xmlns="http://www.w3.org/2000/svg"><g><path d="m226 264h60c41.353 0 75-33.647 75-75 0-.558-.146-1.078-.159-1.633-4.885.189-9.688.432-14.841.432-35.391 0-66.021-6.738-90-19.629-23.979 12.891-54.609 19.629-90 19.629-5.153 0-9.955-.245-14.841-.434-.013.557-.159 1.077-.159 1.635 0 41.353 33.647 75 75 75z"/><path d="m30 152.687v57.905c0 135.249 91.835 255.073 221.884 292.236l4.116 1.172 4.116-1.172c130.049-37.163 221.884-156.987 221.884-292.236v-57.902c-21.588 15.333-51.821 27.257-91.383 32.371.051 1.335.383 2.589.383 3.939 0 57.891-47.109 105-105 105h-60c-57.891 0-105-47.109-105-105 0-1.351.331-2.607.383-3.944-39.566-5.123-69.8-17.058-91.383-32.369z"/><path d="m381.7 38.099c-22.2-15.599-43.2-30.099-65.7-30.099-28.5 0-47.999 15.399-60 25.6-12.001-10.201-31.8-25.6-60-25.6-21.899 0-42.599 14.5-64.799 29.799-42.902 29.702-72.7 45.3-106.3 15.3l-24.901-22.2c1.844 2.999-10.938 126.899 166 126.899 38.101 0 69.901-9 90-25.499 20.099 16.5 51.899 25.499 90 25.499 177.231 0 164.152-123.893 166-126.899l-24.901 22.2c-33.898 30.3-63.398 14.7-105.399-15z"/></g></svg>