<svg id="Capa_1" enable-background="new 0 0 512 512" height="512" viewBox="0 0 512 512" width="512" xmlns="http://www.w3.org/2000/svg"><g><path d="m255.999 242.603c-8.253 10.39-18.609 27.016-18.609 45.02 0 18.001 10.353 34.624 18.611 45.021 8.253-10.39 18.609-27.017 18.609-45.021 0-18.001-10.352-34.624-18.611-45.02z"/><path d="m313.094 183.962-36.278 36.715c11.434 13.622 27.795 38.138 27.795 66.945 0 40.892-32.963 73.152-38 77.841l-47.019 50.931c11.474 3.672 23.707 5.606 36.408 5.606 44.404 0 83.114-23.536 103.549-62.958 20.436-39.422 17.354-84.62-8.241-120.905z"/><path d="m235.497 354.938c-11.446-13.544-28.108-38.243-28.108-67.316 0-41.485 33.922-74.08 38.194-78.02l49.942-50.545-39.525-56.035-95.308 135.114c-25.596 36.285-28.677 81.483-8.241 120.905 9.456 18.241 22.83 33.072 38.865 43.753z"/><path d="m467 0h-422c-24.813 0-45 20.187-45 45v422c0 24.813 20.187 45 45 45h422c24.813 0 45-20.187 45-45v-422c0-24.813-20.187-45-45-45zm-407 75c0-8.284 6.716-15 15-15h90c8.284 0 15 6.716 15 15s-6.716 15-15 15h-90c-8.284 0-15-6.716-15-15zm326.184 297.848c-12.046 23.238-29.91 42.827-51.662 56.651-23.164 14.721-50.316 22.501-78.522 22.501s-55.358-7.78-78.521-22.501c-21.752-13.824-39.616-33.413-51.662-56.651-12.045-23.237-17.756-49.127-16.514-74.869 1.323-27.413 10.616-54.086 26.875-77.135l107.564-152.49c2.811-3.984 7.382-6.354 12.258-6.354s9.447 2.37 12.258 6.354l107.564 152.49c16.259 23.049 25.552 49.722 26.875 77.135 1.242 25.742-4.468 51.631-16.513 74.869z"/></g></svg>