<svg id="bold" height="512" viewBox="0 0 24 24" width="512" xmlns="http://www.w3.org/2000/svg"><path d="m12 0h-10c-1.1 0-2 .9-2 2 0 .11.01.22.03.33l2.97 17.75v1.17c0 1.52 1.23 2.75 2.75 2.75h2.5c1.03 0 1.93-.57 2.4-1.41-.73-1.02-1.22-2.27-1.47-3.73l-.03.14h-4.3l-1.01-6h6.32l-.38 2.26.03-.03c.56-.55 1.33-.84 2.11-.79h.02l2.03-12.11c.02-.11.03-.22.03-.33 0-1.1-.9-2-2-2zm-1.51 11h-6.98l-.51-3h8zm.84-5h-8.66l-.67-4h10z"/><path d="m23.779 16.648c-.151-.151-.369-.229-.575-.217-1.348.084-2.495.398-3.447.913-.288-1.039-.843-2.072-1.678-3.085-.285-.347-.873-.347-1.158 0-.835 1.013-1.39 2.046-1.678 3.085-.952-.515-2.099-.83-3.447-.913-.209-.013-.423.066-.575.217s-.232.36-.22.574c.238 4.173 2.331 6.389 6.47 6.777.023 0 .105-.001.128-.003 4.068-.385 6.162-2.601 6.399-6.774.013-.213-.067-.422-.219-.574z"/></svg>