<svg id="Capa_1" enable-background="new 0 0 512 512" height="512" viewBox="0 0 512 512" width="512" xmlns="http://www.w3.org/2000/svg"><path d="m25.605 507.605 57.528-57.528c10.472 20.988 24.192 40.459 41.261 57.528 2.813 2.813 6.622 4.395 10.606 4.395h181c3.984 0 7.793-1.582 10.605-4.395 41.529-41.528 64.395-98.738 64.395-157.463v-5.142c0-8.291-6.709-15-15-15h-301c-8.291 0-15 6.709-15 15v5.142c0 23.412 3.787 48.208 10.789 69.859l-66.394 66.394c-5.859 5.859-5.859 15.352 0 21.211s15.351 5.859 21.21-.001z"/><path d="m150 300h211c0-32.999-27.001-60-60-60h-8.789l35.08-34.08 31.824 31.824v.015c17.539 17.509 46.113 17.535 63.633-.015 3.914-3.914 90.371-90.371 84.858-84.858 5.859-5.859 5.859-15.352 0-21.211s-15.352-5.859-21.211 0l-53.027 53.027-21.216-21.216 53.033-53.022c5.859-5.859 5.859-15.352 0-21.211s-15.352-5.859-21.211 0l-53.033 53.022-21.215-21.215 53.022-53.033c5.859-5.859 5.859-15.352 0-21.211s-15.352-5.859-21.211 0l-53.022 53.033-21.216-21.216 53.027-53.027c5.859-5.859 5.859-15.352 0-21.211s-15.352-5.859-21.211 0c-14.223 14.223-87.947 87.947-84.858 84.858-17.534 17.534-17.534 46.069 0 63.633l31.824 31.824-56.292 55.29h-53.789c-8.401 0-15-6.599-15-15s6.599-15 15-15h7.5c8.101 0 15-6.599 15-15s-6.899-15-15-15h-53.5c-32.999 0-60 27.001-60 60 0 32.377 26.431 60 60 60z"/></svg>